HIERARCHY
ROOT Hips
{
  OFFSET 51.7975 94.2089 14.8721
  CHANNELS 6 Xposition Yposition Zposition Zrotation Xrotation Yrotation
  JOINT spine
  {
    OFFSET 0 7.80058 0.448573
    CHANNELS 3 Zrotation Xrotation Yrotation
    JOINT spine1
    {
      OFFSET 0 10.1364 0
      CHANNELS 3 Zrotation Xrotation Yrotation
      JOINT spine2
      {
        OFFSET 0 9.71251 0
        CHANNELS 3 Zrotation Xrotation Yrotation
        JOINT Neck
        {
          OFFSET 0 24.9361 1.18887
          CHANNELS 3 Zrotation Xrotation Yrotation
          JOINT Head
          {
            OFFSET 0 7.53384 0
            CHANNELS 3 Zrotation Xrotation Yrotation
            End Site
            {
              OFFSET 0 18.2361 -6.01402
            }
          }
        }
        JOINT RightShoulder
        {
          OFFSET -4.08965 10.4888 -0.569457
          CHANNELS 3 Zrotation Xrotation Yrotation
          JOINT RightArm
          {
            OFFSET 0 13.757 0
            CHANNELS 3 Zrotation Xrotation Yrotation
            JOINT RightArmRoll
            {
              OFFSET 0 6.94478 0
              CHANNELS 3 Zrotation Xrotation Yrotation
              JOINT RightForeArm
              {
                OFFSET 0 20.2277 0
                CHANNELS 3 Zrotation Xrotation Yrotation
                JOINT RightForeArmRoll
                {
                  OFFSET 0 7.79312 0
                  CHANNELS 3 Zrotation Xrotation Yrotation
                  JOINT RightHand
                  {
                    OFFSET 0 15.6391 0
                    CHANNELS 3 Zrotation Xrotation Yrotation
                    End Site
                    {
                      OFFSET 0 0 0
                    }
                  }
                }
              }
            }
          }
        }
        JOINT LeftShoulder
        {
          OFFSET 4.08965 10.4888 -0.569457
          CHANNELS 3 Zrotation Xrotation Yrotation
          JOINT LeftArm
          {
            OFFSET 0 13.757 0
            CHANNELS 3 Zrotation Xrotation Yrotation
            JOINT LeftArmRoll
            {
              OFFSET 0 6.94478 0
              CHANNELS 3 Zrotation Xrotation Yrotation
              JOINT LeftForeArm
              {
                OFFSET 0 20.2277 0
                CHANNELS 3 Zrotation Xrotation Yrotation
                JOINT LeftForeArmRoll
                {
                  OFFSET 0 7.79312 0
                  CHANNELS 3 Zrotation Xrotation Yrotation
                  JOINT LeftHand
                  {
                    OFFSET 0 15.6391 0
                    CHANNELS 3 Zrotation Xrotation Yrotation
                    End Site
                    {
                      OFFSET 0 0 0
                    }
                  }
                }
              }
            }
          }
        }
      }
    }
  }
  JOINT RightUpLeg
  {
    OFFSET -6.91415 -1.26787 -1.06358
    CHANNELS 3 Zrotation Xrotation Yrotation
    JOINT RightUpLegRoll
    {
      OFFSET 0 18.3378 0
      CHANNELS 3 Zrotation Xrotation Yrotation
      JOINT RightLeg
      {
        OFFSET 0 -22.7085 0
        CHANNELS 3 Zrotation Xrotation Yrotation
        JOINT RightLegRoll
        {
          OFFSET 0 22.7828 0
          CHANNELS 3 Zrotation Xrotation Yrotation
          JOINT RightFoot
          {
            OFFSET 0 18.9629 0
            CHANNELS 3 Zrotation Xrotation Yrotation
            JOINT RightToeBase
            {
              OFFSET 0 15.852 0
              CHANNELS 3 Zrotation Xrotation Yrotation
              End Site
              {
                OFFSET 0.00671906 7.67701 -0.884892
              }
            }
          }
        }
      }
    }
  }
  JOINT LeftUpLeg
  {
    OFFSET 6.91415 -1.26787 -1.06358
    CHANNELS 3 Zrotation Xrotation Yrotation
    JOINT LeftUpLegRoll
    {
      OFFSET 0 18.3379 0
      CHANNELS 3 Zrotation Xrotation Yrotation
      JOINT LeftLeg
      {
        OFFSET 0 22.7084 0
        CHANNELS 3 Zrotation Xrotation Yrotation
        JOINT LeftLegRoll
        {
          OFFSET 0 22.9934 0
          CHANNELS 3 Zrotation Xrotation Yrotation
          JOINT LeftFoot
          {
            OFFSET 0 18.7522 0
            CHANNELS 3 Zrotation Xrotation Yrotation
            JOINT LeftToeBase
            {
              OFFSET 0 15.852 0
              CHANNELS 3 Zrotation Xrotation Yrotation
              End Site
              {
                OFFSET -0.030112 7.677 -0.884893
              }
            }
          }
        }
      }
    }
  }
}
MOTION
Frames: 7
Frame Time: 0.00208333
51.8617 94.2239 13.1579 -0.923242 -6.01704 -3.64845 -0.0310538 -0.70342 0.263889 -0.0612637 2.60109 0.525844 -0.0677121 4.24613 0.527448 -0.446915 17.4181 -0.532012 3.23457 -14.8698 0.0692005 78.3212 -4.39084 -4.00315 90.8333 5.64804 10.3563 -1.3194e-005 -7.47213e-009 -1.0748e-006 14.4632 19.4289 -3.34954 -7.63248e-006 -2.26108e-006 -2.99999 8.02889 -4.9515 0.697741 -66.429 2.52896 -0.398583 -103.637 -3.2224 -14.963 6.58889e-006 9.06506e-008 2.25581e-006 -6.33434 16.1251 2.12437 -4.07703e-006 -6.51866e-007 3.00653 -8.0294 -4.95145 -0.697672 179.294 -1.94556 -0.0733845 180 7.01541e-015 178.895 178.047 9.42202 179.681 5.43074e-006 -5.89438e-006 0.155359 -19.1045 68.84 20.2526 8.137 25.2402 -3.48638 179.279 -1.8586 6.85388 4.54188e-006 -4.6773e-006 -1.47005 -4.99846 -12.4016 -0.338344 -6.73014e-007 -9.71979e-006 -0.280506 26.4415 72.3297 -24.5014 -8.1365 25.2327 3.48774 
51.8687 94.219 13.157 -0.92688 -6.0181 -3.64463 -0.030151 -0.700912 0.263191 -0.0592507 2.60597 0.52474 -0.0656781 4.25101 0.526295 -0.421906 17.3893 -0.536989 3.20787 -14.8547 0.0661407 78.3376 -4.39132 -4.00435 90.8056 5.60678 10.3983 -1.3194e-005 -7.47213e-009 -1.0748e-006 14.4504 19.4237 -3.34856 -7.63248e-006 -2.26108e-006 -2.99999 8.02889 -4.9515 0.697741 -66.412 2.51924 -0.395906 -103.636 -3.30083 -14.9854 6.58889e-006 9.06506e-008 2.25581e-006 -6.34633 16.1589 2.12981 -4.07703e-006 -6.51866e-007 3.00653 -8.0294 -4.95145 -0.697672 179.302 -1.95463 -0.0815089 180 7.01541e-015 178.895 178.054 9.41184 179.68 5.43074e-006 -5.89438e-006 0.155373 -19.0967 68.8344 20.2492 8.137 25.2402 -3.48638 179.283 -1.85777 6.85084 4.54188e-006 -4.6773e-006 -1.47004 -4.99923 -12.4088 -0.33915 -6.73014e-007 -9.71979e-006 -0.28051 26.4505 72.3343 -24.5068 -8.1365 25.2327 3.48774 
51.8731 94.2203 13.1622 -0.930588 -6.0191 -3.64085 -0.0292476 -0.698463 0.262489 -0.0572215 2.61074 0.523646 -0.0636277 4.25578 0.525149 -0.395959 17.3611 -0.542173 3.18013 -14.8403 0.0629658 78.3542 -4.39185 -4.00557 90.7776 5.5668 10.4427 -1.3194e-005 -7.47213e-009 -1.0748e-006 14.4367 19.4141 -3.34684 -7.63248e-006 -2.26108e-006 -2.99999 8.02889 -4.9515 0.697741 -66.3949 2.50968 -0.393332 -103.635 -3.37893 -15.0081 6.58889e-006 9.06506e-008 2.25581e-006 -6.35821 16.1906 2.13504 -4.07703e-006 -6.51866e-007 3.00653 -8.0294 -4.95145 -0.697672 179.311 -1.96384 -0.0898472 180 7.01541e-015 178.895 178.061 9.40144 179.678 5.43074e-006 -5.89438e-006 0.155395 -19.0889 68.8288 20.2459 8.137 25.2402 -3.48638 179.287 -1.85693 6.84771 4.54188e-006 -4.6773e-006 -1.47003 -5.00002 -12.4161 -0.339981 -6.73014e-007 -9.71979e-006 -0.280508 26.4597 72.339 -24.5122 -8.1365 25.2327 3.48774 
51.8749 94.2203 13.1601 -0.934345 -6.02007 -3.63709 -0.0283438 -0.696057 0.261786 -0.0551807 2.61542 0.522557 -0.0615656 4.26046 0.524009 -0.369357 17.3335 -0.5475 3.15168 -14.8262 0.0597106 78.3708 -4.39241 -4.00681 90.7496 5.52772 10.4887 -1.3194e-005 -7.47213e-009 -1.0748e-006 14.4224 19.4014 -3.3446 -7.63248e-006 -2.26108e-006 -2.99999 8.02889 -4.9515 0.697741 -66.3776 2.50021 -0.390831 -103.633 -3.45678 -15.031 6.58889e-006 9.06506e-008 2.25581e-006 -6.37003 16.2208 2.14013 -4.07703e-006 -6.51866e-007 3.00653 -8.0294 -4.95145 -0.697672 179.32 -1.97315 -0.0983352 180 7.01541e-015 178.895 178.069 9.39089 179.677 5.43074e-006 -5.89438e-006 0.15542 -19.0811 68.8231 20.2426 8.137 25.2402 -3.48638 179.29 -1.85609 6.8445 4.54188e-006 -4.6773e-006 -1.47001 -5.00083 -12.4235 -0.340831 -6.73014e-007 -9.71979e-006 -0.280503 26.4691 72.3438 -24.5177 -8.1365 25.2327 3.48774 
51.8775 94.2207 13.151 -0.938131 -6.02101 -3.63335 -0.0274397 -0.693674 0.261082 -0.0531332 2.62006 0.521472 -0.0594967 4.2651 0.522871 -0.342383 17.306 -0.55291 3.12281 -14.8123 0.0564096 78.3876 -4.39298 -4.00806 90.7215 5.48914 10.5355 -1.3194e-005 -7.47213e-009 -1.0748e-006 14.4076 19.387 -3.34208 -7.63248e-006 -2.26108e-006 -2.99999 8.02889 -4.9515 0.697741 -66.3603 2.4908 -0.38837 -103.632 -3.53449 -15.054 6.58889e-006 9.06506e-008 2.25581e-006 -6.3818 16.2502 2.14514 -4.07703e-006 -6.51866e-007 3.00653 -8.0294 -4.95145 -0.697672 179.329 -1.98251 -0.106909 180 7.01541e-015 178.895 178.076 9.38028 179.675 5.43074e-006 -5.89438e-006 0.155449 -19.0733 68.8175 20.2393 8.137 25.2402 -3.48638 179.294 -1.85523 6.84126 4.54188e-006 -4.6773e-006 -1.46998 -5.00165 -12.431 -0.34169 -6.73014e-007 -9.71979e-006 -0.280496 26.4785 72.3487 -24.5233 -8.1365 25.2327 3.48774 
51.8801 94.2192 13.1532 -0.941923 -6.02195 -3.62961 -0.0265356 -0.691298 0.260378 -0.051084 2.62468 0.520387 -0.0574261 4.26972 0.521735 -0.31532 17.2787 -0.558338 3.09384 -14.7984 0.0530975 78.4043 -4.39356 -4.00932 90.6934 5.4507 10.5826 -1.3194e-005 -7.47214e-009 -1.0748e-006 14.3928 19.3722 -3.33948 -7.63248e-006 -2.26108e-006 -2.99999 8.02889 -4.9515 0.697741 -66.3429 2.48141 -0.38592 -103.63 -3.61215 -15.0771 6.58889e-006 9.06506e-008 2.25581e-006 -6.39357 16.2794 2.15014 -4.07703e-006 -6.51866e-007 3.00653 -8.0294 -4.95145 -0.697672 179.338 -1.99188 -0.115504 180 7.01541e-015 178.895 178.084 9.36966 179.673 5.43074e-006 -5.89438e-006 0.155479 -19.0654 68.8118 20.236 8.137 25.2402 -3.48638 179.298 -1.85438 6.83801 4.54188e-006 -4.6773e-006 -1.46996 -5.00247 -12.4384 -0.342552 -6.73014e-007 -9.71979e-006 -0.280489 26.4879 72.3535 -24.5289 -8.1365 25.2327 3.48774 
51.8832 94.2195 13.1594 -0.945701 -6.02291 -3.62586 -0.0256315 -0.688909 0.259674 -0.0490379 2.62933 0.519301 -0.0553586 4.27437 0.520597 -0.288451 17.2512 -0.563724 3.06508 -14.7845 0.0498089 78.421 -4.39412 -4.01056 90.6654 5.41202 10.6293 -1.3194e-005 -7.47214e-009 -1.0748e-006 14.3781 19.3582 -3.33703 -7.63248e-006 -2.26108e-006 -2.99999 8.02889 -4.9515 0.697741 -66.3256 2.47199 -0.38345 -103.629 -3.68985 -15.1001 6.58889e-006 9.06506e-008 2.25581e-006 -6.40537 16.309 2.15518 -4.07703e-006 -6.51866e-007 3.00653 -8.0294 -4.95145 -0.697672 179.346 -2.00122 -0.124056 180 7.01541e-015 178.895 178.092 9.35906 179.672 5.43074e-006 -5.89438e-006 0.155507 -19.0576 68.8061 20.2328 8.137 25.2402 -3.48638 179.302 -1.85353 6.83478 4.54188e-006 -4.6773e-006 -1.46994 -5.00329 -12.4459 -0.343409 -6.73014e-007 -9.71979e-006 -0.280482 26.4973 72.3584 -24.5344 -8.1365 25.2327 3.48774 
